<?xml version="1.0" standalone="no"?>
<!DOCTYPE svg PUBLIC "-//W3C//DTD SVG 20010904//EN"
 "http://www.w3.org/TR/2001/REC-SVG-20010904/DTD/svg10.dtd">
<svg version="1.0" xmlns="http://www.w3.org/2000/svg"
 width="512.000000pt" height="512.000000pt" viewBox="0 0 512.000000 512.000000"
 preserveAspectRatio="xMidYMid meet">
<metadata>
Created by potrace 1.11, written by Peter Selinger 2001-2013
</metadata>
<g transform="translate(0.000000,512.000000) scale(0.100000,-0.100000)"
fill="#000000" stroke="none">
<path d="M2369 5066 c-2 -2 -38 -6 -79 -10 -41 -3 -85 -8 -97 -10 -11 -3 -43
-8 -70 -11 -26 -4 -64 -11 -83 -15 -19 -5 -50 -12 -67 -15 -116 -19 -402 -124
-564 -205 -119 -60 -374 -222 -409 -260 -3 -3 -43 -37 -90 -77 -321 -270 -587
-659 -728 -1064 -43 -122 -96 -330 -107 -413 -3 -27 -8 -53 -10 -57 -10 -15
-20 -205 -20 -369 0 -157 6 -267 19 -340 3 -14 7 -42 10 -62 3 -20 15 -79 26
-130 163 -739 673 -1384 1350 -1706 162 -77 186 -87 322 -130 160 -51 231 -67
483 -107 85 -13 441 -13 555 0 521 62 938 242 1355 585 17 13 86 81 155 150
397 398 644 920 707 1495 16 140 8 504 -13 610 -2 11 -7 40 -10 65 -16 125
-86 367 -156 540 -67 166 -225 443 -313 547 -5 7 -14 18 -20 25 -66 86 -108
132 -219 243 -117 116 -304 269 -393 321 -17 11 -67 40 -110 66 -228 137 -567
260 -828 301 -16 3 -50 8 -75 12 -25 4 -56 9 -70 12 -30 6 -445 14 -451 9z"/>
</g>
</svg>
